<!DOCTYPE svg PUBLIC "-//W3C//DTD SVG 1.1//EN" "http://www.w3.org/Graphics/SVG/1.1/DTD/svg11.dtd">
<!-- Uploaded to: SVG Repo, www.svgrepo.com, Transformed by: SVG Repo Mixer Tools -->
<svg fill="#7c838e" width="800px" height="800px" viewBox="0 0 24 24" xmlns="http://www.w3.org/2000/svg" stroke="#7c838e">
<g id="SVGRepo_bgCarrier" stroke-width="0"/>
<g id="SVGRepo_tracerCarrier" stroke-linecap="round" stroke-linejoin="round"/>
<g id="SVGRepo_iconCarrier"> <g data-name="Layer 2"> <g data-name="message-circle"> <rect width="24" height="24" opacity="0"/> <path d="M19.07 4.93a10 10 0 0 0-16.28 11 1.06 1.06 0 0 1 .09.64L2 20.8a1 1 0 0 0 .27.91A1 1 0 0 0 3 22h.2l4.28-.86a1.26 1.26 0 0 1 .64.09 10 10 0 0 0 11-16.28zM8 13a1 1 0 1 1 1-1 1 1 0 0 1-1 1zm4 0a1 1 0 1 1 1-1 1 1 0 0 1-1 1zm4 0a1 1 0 1 1 1-1 1 1 0 0 1-1 1z"/> </g> </g> </g>
</svg>